<?xml version="1.0" encoding="utf-8"?>
<!-- Generator: Adobe Illustrator 23.0.3, SVG Export Plug-In . SVG Version: 6.00 Build 0)  -->
<svg version="1.1" id="Vrstva_1" xmlns="http://www.w3.org/2000/svg" xmlns:xlink="http://www.w3.org/1999/xlink" x="0px" y="0px"
	 viewBox="0 0 1160.8 164.3" style="enable-background:new 0 0 1160.8 164.3;" xml:space="preserve">
<style type="text/css">
	.st0{fill:#E41F13;}
	.st1{fill:#FFFFFF;}
</style>
<g>
	<g>
		<path class="st0" d="M595.8,68.3c-3.4,3.4-8.1,5.4-14.8,5.4c-6.4,0-11.7-2-14.8-5.4c-3.4-3.4-4.7-7.4-5-12.7h7.4
			c1,7.4,4.7,11.4,12.4,11.4c3.7,0,7-1.3,9.1-3.4c3.7-3.7,4-9.7,4-15.1c0-9.1-1.7-17.8-12.4-17.8c-6.4,0-10.7,3-12.1,7.4h-6.7V-0.5
			h37.2v6.7h-30.5v23.5c3-3.4,7.4-5,13.1-5c5.4,0,9.7,1.7,12.7,4.7c5.4,5.4,6,12.7,6,19.8C601.5,55.9,600.8,62.9,595.8,68.3z"/>
		<path class="st0" d="M646.1,42.8h-19.5V73h-7.7V-0.8h27.5c13.4,0,22.8,8.4,22.8,21.5C668.9,34.1,659.5,42.8,646.1,42.8z
			 M645.4,6.2h-18.8v29.2h18.8c9.1,0,15.8-5,15.8-14.8C660.8,11.2,654.5,6.2,645.4,6.2z"/>
		<path class="st0" d="M754.8,73l-6-16.8h-32.2l-6,16.8h-8.4l27.2-73.8h6.7L762.8,73H754.8z M733,10.6l-13.8,38.9h27.5L733,10.6z"/>
		<path class="st0" d="M818.5,65.3c-5,5.7-12.1,8.4-19.8,8.4c-7.4,0-13.8-2.7-18.8-7.7c-7-7-7-14.1-7-29.9s0-22.8,7-29.9
			c5-5,11.4-7.7,18.8-7.7c14.1,0,23.5,9.1,25.8,22.1h-7.7c-2-9.4-8.7-15.1-17.8-15.1c-5,0-9.4,2-12.7,5.4c-4.7,4.7-5,9.7-5,25.2
			s0.7,20.5,5,25.2c3.4,3.4,7.7,5,12.7,5c5.4,0,10.4-2,14.1-6.4c3-3.7,4-7.7,4-13.4v-5.7H799v-7h25.8v11.7
			C824.9,54.5,822.9,60.2,818.5,65.3z"/>
		<path class="st0" d="M843.3,73V-0.8H889v7h-37.9V32h32.2v7h-32.2v26.5H889v7h-45.6V73H843.3z"/>
		<path class="st0" d="M952.7,73l-39.2-59v59h-7.7V-0.8h7.4l39.2,58.7V-0.8h7.7V73H952.7z"/>
		<path class="st0" d="M1004.7,73.6c-7.4,0-13.8-2.7-18.8-7.7c-7-7-7-14.1-7-29.9s0-22.8,7-29.9c5-5,11.7-7.7,18.8-7.7
			c13.1,0,23.1,8.1,25.5,21.8h-8.1c-2-9.1-8.4-14.8-17.4-14.8c-5,0-9.4,2-12.7,5c-4.7,4.7-5,9.7-5,25.2s0.7,20.5,5,25.2
			c3.4,3.4,7.7,5,12.7,5c9.1,0,15.8-6,17.8-14.8h7.7C1027.8,65.6,1017.8,73.6,1004.7,73.6z"/>
		<path class="st0" d="M1068.4,42.4V73h-7.7V42.4l-21.8-43.3h8.4l17.4,35.2l17.1-35.2h8.4L1068.4,42.4z"/>
		<path class="st0" d="M1094.3,73v-9.7h9.7V73H1094.3z"/>
	</g>
	<g>
		<path class="st1" d="M588.4,147.4c-2.5,2.5-6.2,3.8-10.6,3.8h-14.2v-41.5h14.2c4.3,0,7.9,1.3,10.6,3.8c4.3,4.3,4.2,10.6,4.2,16.4
			C592.3,135.7,592.5,143,588.4,147.4z M585.1,116.6c-2.1-2.3-4.9-3-8.1-3h-9v33.6h9.1c3.2,0,6-0.8,8.1-3c2.8-3,2.6-9.1,2.6-14.2
			C588,124.9,588,119.6,585.1,116.6z"/>
		<path class="st1" d="M602.1,114.3v-4.7h4.7v4.7H602.1z M602.3,151.1v-28.7h4.2v28.7H602.3z"/>
		<path class="st1" d="M632.9,127.9c-1.5-1.5-2.6-2.1-4.9-2.1c-4.2,0-6.8,3.4-6.8,7.7v17.6H617v-28.7h4.2v3.6
			c1.5-2.5,4.7-3.8,8.1-3.8c2.6,0,4.9,0.6,6.8,2.6L632.9,127.9z"/>
		<path class="st1" d="M644.8,137.9c0,6.2,3,9.8,8.5,9.8c3.4,0,5.3-0.9,7.5-3.2l2.8,2.5c-2.8,2.8-5.7,4.3-10.6,4.3
			c-7.5,0-12.5-4.5-12.5-14.7c0-9.2,4.5-14.7,11.7-14.7c7.4,0,11.7,5.3,11.7,13.8v1.9h-19.3v0.3H644.8z M658.9,130
			c-1.1-2.6-3.6-4.3-6.6-4.3s-5.7,1.7-6.6,4.3c-0.6,1.5-0.8,2.5-0.9,4.7h15.1C659.7,132.4,659.7,131.5,658.9,130z"/>
		<path class="st1" d="M684.6,151.5c-7.2,0-12.6-4.9-12.6-14.7s5.5-14.7,12.6-14.7c4,0,6.4,1.1,9.4,4.2l-2.8,2.6
			c-2.1-2.5-3.8-3.2-6.6-3.2s-5.1,1.1-6.6,3.2c-1.3,1.9-1.9,4.2-1.9,7.7c0,3.6,0.6,5.9,1.9,7.7c1.5,2.1,3.8,3.2,6.6,3.2
			c2.6,0,4.3-0.9,6.6-3.2l2.8,2.8C691.2,150.4,688.6,151.5,684.6,151.5z"/>
		<path class="st1" d="M711.8,151.1c-4.9,0-7.4-3.4-7.4-7.7v-17.6h-3.6v-3.2h3.6v-8.9h4.2v9.1h6v3.2h-6v17.6c0,2.6,1.1,4.2,4,4.2
			h2.3v3.6h-3L711.8,151.1L711.8,151.1z"/>
		<path class="st1" d="M775.6,151.1v-17.6c0-5.1-2.6-7.5-7-7.5c-4.2,0-7.2,2.6-7.2,7.2v18.1h-4.3v-17.6c0-5.1-2.6-7.5-7-7.5
			s-7.2,2.6-7.2,7.5v17.6h-4.2v-28.7h4.2v3.2c2.1-2.3,4.9-3.4,8.1-3.4c4,0,7,1.7,8.9,4.7c2.3-3.2,5.5-4.7,9.4-4.7
			c3,0,5.7,0.9,7.4,2.6c2.1,1.9,3,4.7,3,7.9v18.3L775.6,151.1L775.6,151.1L775.6,151.1z"/>
		<path class="st1" d="M806.5,151.1v-2.8c-2.3,2.3-4.3,3-8.3,3s-6.2-0.8-8.1-2.6c-1.3-1.3-2.1-3.6-2.1-5.9c0-5.1,3.4-8.3,9.8-8.3
			h8.7v-2.8c0-4.2-2.1-6.2-7.4-6.2c-3.6,0-5.5,0.9-7.2,3.2l-2.8-2.6c2.6-3.4,5.5-4.2,10.2-4.2c7.7,0,11.5,3.4,11.5,9.6v19.4h-4.3
			L806.5,151.1L806.5,151.1z M806.5,137.9h-8.1c-4.3,0-6.4,1.7-6.4,5.1c0,3.4,2.1,4.9,6.6,4.9c2.5,0,4.5-0.2,6.4-1.9
			c0.9-0.9,1.5-2.6,1.5-4.9V137.9z"/>
		<path class="st1" d="M837.1,127.9c-1.5-1.5-2.6-2.1-4.9-2.1c-4.2,0-6.8,3.4-6.8,7.7v17.6h-4.2v-28.7h4.2v3.6
			c1.5-2.5,4.7-3.8,8.1-3.8c2.6,0,4.9,0.6,6.8,2.6L837.1,127.9z"/>
		<path class="st1" d="M866,151.1l-9.1-14.7l-5.7,6.4v8.3H847v-41.5h4.2v27.7l12.8-14.9h5.3l-9.6,10.9L871,151h-5V151.1z"/>
		<path class="st1" d="M880,137.9c0,6.2,3,9.8,8.5,9.8c3.4,0,5.3-0.9,7.5-3.2l2.8,2.5c-2.8,2.8-5.7,4.3-10.6,4.3
			c-7.5,0-12.5-4.5-12.5-14.7c0-9.2,4.5-14.7,11.7-14.7c7.4,0,11.7,5.3,11.7,13.8v1.9H880V137.9z M894.3,130
			c-1.1-2.6-3.6-4.3-6.8-4.3c-3,0-5.7,1.7-6.6,4.3c-0.6,1.5-0.8,2.5-0.9,4.7h15C895,132.4,894.9,131.5,894.3,130z"/>
		<path class="st1" d="M916.4,151.1c-4.9,0-7.4-3.4-7.4-7.7v-17.6h-3.6v-3.2h3.6v-8.9h4.2v9.1h6v3.2h-6v17.6c0,2.6,1.1,4.2,4,4.2
			h2.3v3.6h-3L916.4,151.1L916.4,151.1z"/>
		<path class="st1" d="M927.3,114.3v-4.7h4.7v4.7H927.3z M927.7,151.1v-28.7h4.2v28.7H927.7z"/>
		<path class="st1" d="M960.7,151.1v-17.6c0-5.1-2.8-7.5-7-7.5c-4.3,0-7.2,2.6-7.2,7.5v17.6h-4.2v-28.7h4.2v3.2
			c2.1-2.3,4.9-3.4,8.1-3.4c3,0,5.7,0.9,7.4,2.6c2.1,1.9,3,4.7,3,7.9V151h-4.3V151.1z"/>
		<path class="st1" d="M984.5,164.3c-4.3,0-6.6-1.1-9.6-3.8l2.6-2.6c2.1,1.9,3.6,2.8,6.8,2.8c5.5,0,7.9-4,7.9-8.9v-4.5
			c-2.3,3-4.9,3.8-8.1,3.8c-2.8,0-5.5-1.1-7-2.6c-2.8-2.8-3.4-7.4-3.4-11.9c0-4.7,0.6-9.1,3.4-11.9c1.5-1.5,4.2-2.5,7-2.5
			c3.2,0,5.7,0.8,8.1,3.8v-3.4h4.2V152C996.6,159.1,992.1,164.3,984.5,164.3z M985.3,125.8c-6.2,0-7.2,5.3-7.2,10.8
			c0,5.3,0.9,10.8,7.2,10.8c6.2,0,7.2-5.3,7.2-10.8C992.4,131.1,991.5,125.8,985.3,125.8z"/>
		<path class="st1" d="M1030.8,151.1c-4.9,0-7.4-3.4-7.4-7.7v-17.6h-3.6v-3.2h3.6v-8.9h4.2v9.1h6v3.2h-6v17.6c0,2.6,1.1,4.2,4,4.2
			h2.3v3.6h-3L1030.8,151.1L1030.8,151.1z"/>
		<path class="st1" d="M1044.3,137.9c0,6.2,3,9.8,8.5,9.8c3.4,0,5.3-0.9,7.5-3.2l2.8,2.5c-2.8,2.8-5.7,4.3-10.6,4.3
			c-7.5,0-12.5-4.5-12.5-14.7c0-9.2,4.5-14.7,11.7-14.7c7.4,0,11.7,5.3,11.7,13.8v1.9h-19.3v0.3H1044.3z M1058.5,130
			c-1.1-2.6-3.6-4.3-6.6-4.3s-5.7,1.7-6.6,4.3c-0.6,1.5-0.8,2.5-0.9,4.7h15.1C1059.3,132.4,1059.3,131.5,1058.5,130z"/>
		<path class="st1" d="M1089.3,151.1v-2.8c-2.3,2.3-4.3,3-8.3,3s-6.2-0.8-8.1-2.6c-1.3-1.3-2.1-3.6-2.1-5.9c0-5.1,3.6-8.3,9.8-8.3
			h8.7v-2.8c0-4.2-2.1-6.2-7.4-6.2c-3.6,0-5.5,0.9-7.2,3.2l-2.8-2.6c2.6-3.4,5.5-4.2,10.2-4.2c7.7,0,11.5,3.4,11.5,9.6v19.4h-4.3
			L1089.3,151.1L1089.3,151.1z M1089.3,137.9h-8.1c-4.3,0-6.4,1.7-6.4,5.1c0,3.4,2.1,4.9,6.6,4.9c2.5,0,4.5-0.2,6.4-1.9
			c0.9-0.9,1.5-2.6,1.5-4.9V137.9z"/>
		<path class="st1" d="M1140.6,151.1v-17.6c0-5.1-2.6-7.5-7-7.5c-4.2,0-7.2,2.6-7.2,7.2v18.1h-4.2v-17.6c0-5.1-2.8-7.5-7-7.5
			c-4.3,0-7.2,2.6-7.2,7.5v17.6h-4.2v-28.7h4.2v3.2c2.1-2.3,4.9-3.4,8.1-3.4c4,0,7,1.7,8.9,4.7c2.3-3.2,5.5-4.7,9.4-4.7
			c3,0,5.7,0.9,7.4,2.6c2.1,1.9,3,4.7,3,7.9v18.3L1140.6,151.1L1140.6,151.1L1140.6,151.1z"/>
		<path class="st1" d="M1155.3,151.1v-5.5h5.5v5.5H1155.3z"/>
	</g>
</g>
<path class="st0" d="M227.5,0v151.6h49.3v-30.3h109.9V0H227.5z M276.8,75.8V45.5h60.6v30.3H276.8z M30.3,30.3H0V0h30.3V30.3z
	 M30.3,151.6H0v-30.3h30.3V151.6z M166.8,30.3h-30.3V0h30.3V30.3z M166.8,151.6h-30.3v-30.3h30.3V151.6z M98.6,91H68.2V60.7h30.3
	L98.6,91L98.6,91z"/>
<rect x="474.9" y="0" class="st0" width="4.5" height="151.6"/>
</svg>
