<?xml version="1.0" encoding="utf-8"?>
<!-- Generator: Adobe Illustrator 23.0.3, SVG Export Plug-In . SVG Version: 6.00 Build 0)  -->
<svg version="1.1" id="Vrstva_1" xmlns="http://www.w3.org/2000/svg" xmlns:xlink="http://www.w3.org/1999/xlink" x="0px" y="0px"
     viewBox="0 0 566.9 264.8" style="enable-background:new 0 0 566.9 264.8;" xml:space="preserve">
<style type="text/css">
	.st0{fill:#E41F13;}
	.st1{fill:#FFFFFF;}
</style>
<g>
	<g>
		<path class="st0" d="M78.6,256.4c-1,1-2.4,1.6-4.4,1.6c-1.9,0-3.5-0.6-4.4-1.6c-1-1-1.4-2.2-1.5-3.8h2.2c0.3,2.2,1.4,3.4,3.7,3.4
			c1.1,0,2.1-0.4,2.7-1c1.1-1.1,1.2-2.9,1.2-4.5c0-2.7-0.5-5.3-3.7-5.3c-1.9,0-3.2,0.9-3.6,2.2h-2v-11.5h11.1v2h-9.1v7
			c0.9-1,2.2-1.5,3.9-1.5c1.6,0,2.9,0.5,3.8,1.4c1.6,1.6,1.8,3.8,1.8,5.9C80.3,252.7,80.1,254.8,78.6,256.4z"/>
		<path class="st0" d="M93.6,248.8h-5.8v9h-2.3v-22h8.2c4,0,6.8,2.5,6.8,6.4C100.4,246.2,97.6,248.8,93.6,248.8z M93.4,237.9h-5.6
			v8.7h5.6c2.7,0,4.7-1.5,4.7-4.4C98,239.4,96.1,237.9,93.4,237.9z"/>
		<path class="st0" d="M126,257.8l-1.8-5h-9.6l-1.8,5h-2.5l8.1-22h2l8,22H126z M119.5,239.2l-4.1,11.6h8.2L119.5,239.2z"/>
		<path class="st0" d="M145,255.5c-1.5,1.7-3.6,2.5-5.9,2.5c-2.2,0-4.1-0.8-5.6-2.3c-2.1-2.1-2.1-4.2-2.1-8.9c0-4.7,0-6.8,2.1-8.9
			c1.5-1.5,3.4-2.3,5.6-2.3c4.2,0,7,2.7,7.7,6.6h-2.3c-0.6-2.8-2.6-4.5-5.3-4.5c-1.5,0-2.8,0.6-3.8,1.6c-1.4,1.4-1.5,2.9-1.5,7.5
			c0,4.6,0.2,6.1,1.5,7.5c1,1,2.3,1.5,3.8,1.5c1.6,0,3.1-0.6,4.2-1.9c0.9-1.1,1.2-2.3,1.2-4v-1.7h-5.4v-2.1h7.7v3.5
			C146.9,252.3,146.3,254,145,255.5z"/>
		<path class="st0" d="M152.4,257.8v-22H166v2.1h-11.3v7.7h9.6v2.1h-9.6v7.9H166v2.1H152.4z"/>
		<path class="st0" d="M185,257.8l-11.7-17.6v17.6H171v-22h2.2l11.7,17.5v-17.5h2.3v22H185z"/>
		<path class="st0" d="M200.5,258c-2.2,0-4.1-0.8-5.6-2.3c-2.1-2.1-2.1-4.2-2.1-8.9c0-4.7,0-6.8,2.1-8.9c1.5-1.5,3.5-2.3,5.6-2.3
			c3.9,0,6.9,2.4,7.6,6.5h-2.4c-0.6-2.7-2.5-4.4-5.2-4.4c-1.5,0-2.8,0.6-3.8,1.5c-1.4,1.4-1.5,2.9-1.5,7.5c0,4.6,0.2,6.1,1.5,7.5
			c1,1,2.3,1.5,3.8,1.5c2.7,0,4.7-1.8,5.3-4.4h2.3C207.4,255.6,204.4,258,200.5,258z"/>
		<path class="st0" d="M219.5,248.7v9.1h-2.3v-9.1l-6.5-12.9h2.5l5.2,10.5l5.1-10.5h2.5L219.5,248.7z"/>
		<path class="st0" d="M227.2,257.8v-2.9h2.9v2.9H227.2z"/>
	</g>
	<g>
		<path class="st1" d="M263.6,255.8c-1.3,1.3-3.3,2-5.6,2h-7.5v-22h7.5c2.3,0,4.2,0.7,5.6,2c2.3,2.3,2.2,5.6,2.2,8.7
			C265.7,249.6,265.8,253.5,263.6,255.8z M261.9,239.5c-1.1-1.2-2.6-1.6-4.3-1.6h-4.8v17.8h4.8c1.7,0,3.2-0.4,4.3-1.6
			c1.5-1.6,1.4-4.8,1.4-7.5C263.4,243.9,263.4,241.1,261.9,239.5z"/>
		<path class="st1" d="M270.9,238.3v-2.5h2.5v2.5H270.9z M271,257.8v-15.2h2.2v15.2H271z"/>
		<path class="st1" d="M287.2,245.5c-0.8-0.8-1.4-1.1-2.6-1.1c-2.2,0-3.6,1.8-3.6,4.1v9.3h-2.2v-15.2h2.2v1.9c0.8-1.3,2.5-2,4.3-2
			c1.4,0,2.6,0.3,3.6,1.4L287.2,245.5z"/>
		<path class="st1" d="M293.5,250.8c0,3.3,1.6,5.2,4.5,5.2c1.8,0,2.8-0.5,4-1.7l1.5,1.3c-1.5,1.5-3,2.3-5.6,2.3
			c-4,0-6.6-2.4-6.6-7.8c0-4.9,2.4-7.8,6.2-7.8c3.9,0,6.2,2.8,6.2,7.3v1H293.5z M301,246.6c-0.6-1.4-1.9-2.3-3.5-2.3
			c-1.6,0-3,0.9-3.5,2.3c-0.3,0.8-0.4,1.3-0.5,2.5h8C301.4,247.9,301.4,247.4,301,246.6z"/>
		<path class="st1" d="M314.6,258c-3.8,0-6.7-2.6-6.7-7.8c0-5.2,2.9-7.8,6.7-7.8c2.1,0,3.4,0.6,5,2.2l-1.5,1.4
			c-1.1-1.3-2-1.7-3.5-1.7c-1.5,0-2.7,0.6-3.5,1.7c-0.7,1-1,2.2-1,4.1c0,1.9,0.3,3.1,1,4.1c0.8,1.1,2,1.7,3.5,1.7
			c1.4,0,2.3-0.5,3.5-1.7l1.5,1.5C318.1,257.4,316.7,258,314.6,258z"/>
		<path class="st1" d="M329,257.8c-2.6,0-3.9-1.8-3.9-4.1v-9.3h-1.9v-1.7h1.9V238h2.2v4.8h3.2v1.7h-3.2v9.3c0,1.4,0.6,2.2,2.1,2.2
			h1.2v1.9H329z"/>
		<path class="st1" d="M362.8,257.8v-9.3c0-2.7-1.4-4-3.7-4c-2.2,0-3.8,1.4-3.8,3.8v9.6H353v-9.3c0-2.7-1.4-4-3.7-4
			c-2.3,0-3.8,1.4-3.8,4v9.3h-2.2v-15.2h2.2v1.7c1.1-1.2,2.6-1.8,4.3-1.8c2.1,0,3.7,0.9,4.7,2.5c1.2-1.7,2.9-2.5,5-2.5
			c1.6,0,3,0.5,3.9,1.4c1.1,1,1.6,2.5,1.6,4.2v9.7H362.8z"/>
		<path class="st1" d="M379.2,257.8v-1.5c-1.2,1.2-2.3,1.6-4.4,1.6c-2.1,0-3.3-0.4-4.3-1.4c-0.7-0.7-1.1-1.9-1.1-3.1
			c0-2.7,1.8-4.4,5.2-4.4h4.6v-1.5c0-2.2-1.1-3.3-3.9-3.3c-1.9,0-2.9,0.5-3.8,1.7l-1.5-1.4c1.4-1.8,2.9-2.2,5.4-2.2
			c4.1,0,6.1,1.8,6.1,5.1v10.3H379.2z M379.2,250.8h-4.3c-2.3,0-3.4,0.9-3.4,2.7c0,1.8,1.1,2.6,3.5,2.6c1.3,0,2.4-0.1,3.4-1
			c0.5-0.5,0.8-1.4,0.8-2.6V250.8z"/>
		<path class="st1" d="M395.4,245.5c-0.8-0.8-1.4-1.1-2.6-1.1c-2.2,0-3.6,1.8-3.6,4.1v9.3h-2.2v-15.2h2.2v1.9c0.8-1.3,2.5-2,4.3-2
			c1.4,0,2.6,0.3,3.6,1.4L395.4,245.5z"/>
		<path class="st1" d="M410.7,257.8l-4.8-7.8l-3,3.4v4.4h-2.2v-22h2.2v14.7l6.8-7.9h2.8l-5.1,5.8l6,9.4H410.7z"/>
		<path class="st1" d="M418.1,250.8c0,3.3,1.6,5.2,4.5,5.2c1.8,0,2.8-0.5,4-1.7l1.5,1.3c-1.5,1.5-3,2.3-5.6,2.3
			c-4,0-6.6-2.4-6.6-7.8c0-4.9,2.4-7.8,6.2-7.8c3.9,0,6.2,2.8,6.2,7.3v1H418.1z M425.7,246.6c-0.6-1.4-1.9-2.3-3.6-2.3
			c-1.6,0-3,0.9-3.5,2.3c-0.3,0.8-0.4,1.3-0.5,2.5h8C426.1,247.9,426,247.4,425.7,246.6z"/>
		<path class="st1" d="M437.4,257.8c-2.6,0-3.9-1.8-3.9-4.1v-9.3h-1.9v-1.7h1.9V238h2.2v4.8h3.2v1.7h-3.2v9.3c0,1.4,0.6,2.2,2.1,2.2
			h1.2v1.9H437.4z"/>
		<path class="st1" d="M443.2,238.3v-2.5h2.5v2.5H443.2z M443.4,257.8v-15.2h2.2v15.2H443.4z"/>
		<path class="st1" d="M460.9,257.8v-9.3c0-2.7-1.5-4-3.7-4c-2.3,0-3.8,1.4-3.8,4v9.3h-2.2v-15.2h2.2v1.7c1.1-1.2,2.6-1.8,4.3-1.8
			c1.6,0,3,0.5,3.9,1.4c1.1,1,1.6,2.5,1.6,4.2v9.7H460.9z"/>
		<path class="st1" d="M473.5,264.8c-2.3,0-3.5-0.6-5.1-2l1.4-1.4c1.1,1,1.9,1.5,3.6,1.5c2.9,0,4.2-2.1,4.2-4.7v-2.4
			c-1.2,1.6-2.6,2-4.3,2c-1.5,0-2.9-0.6-3.7-1.4c-1.5-1.5-1.8-3.9-1.8-6.3c0-2.5,0.3-4.8,1.8-6.3c0.8-0.8,2.2-1.3,3.7-1.3
			c1.7,0,3,0.4,4.3,2v-1.8h2.2v15.6C479.9,262,477.5,264.8,473.5,264.8z M473.9,244.4c-3.3,0-3.8,2.8-3.8,5.7c0,2.8,0.5,5.7,3.8,5.7
			c3.3,0,3.8-2.8,3.8-5.7C477.7,247.2,477.2,244.4,473.9,244.4z"/>
		<path class="st1" d="M498,257.8c-2.6,0-3.9-1.8-3.9-4.1v-9.3h-1.9v-1.7h1.9V238h2.2v4.8h3.2v1.7h-3.2v9.3c0,1.4,0.6,2.2,2.1,2.2
			h1.2v1.9H498z"/>
		<path class="st1" d="M505.2,250.8c0,3.3,1.6,5.2,4.5,5.2c1.8,0,2.8-0.5,4-1.7l1.5,1.3c-1.5,1.5-3,2.3-5.6,2.3
			c-4,0-6.6-2.4-6.6-7.8c0-4.9,2.4-7.8,6.2-7.8c3.9,0,6.2,2.8,6.2,7.3v1H505.2z M512.7,246.6c-0.6-1.4-1.9-2.3-3.5-2.3
			c-1.6,0-3,0.9-3.5,2.3c-0.3,0.8-0.4,1.3-0.5,2.5h8C513.1,247.9,513.1,247.4,512.7,246.6z"/>
		<path class="st1" d="M529,257.8v-1.5c-1.2,1.2-2.3,1.6-4.4,1.6c-2.1,0-3.3-0.4-4.3-1.4c-0.7-0.7-1.1-1.9-1.1-3.1
			c0-2.7,1.9-4.4,5.2-4.4h4.6v-1.5c0-2.2-1.1-3.3-3.9-3.3c-1.9,0-2.9,0.5-3.8,1.7l-1.5-1.4c1.4-1.8,2.9-2.2,5.4-2.2
			c4.1,0,6.1,1.8,6.1,5.1v10.3H529z M529,250.8h-4.3c-2.3,0-3.4,0.9-3.4,2.7c0,1.8,1.1,2.6,3.5,2.6c1.3,0,2.4-0.1,3.4-1
			c0.5-0.5,0.8-1.4,0.8-2.6V250.8z"/>
		<path class="st1" d="M556.2,257.8v-9.3c0-2.7-1.4-4-3.7-4c-2.2,0-3.8,1.4-3.8,3.8v9.6h-2.2v-9.3c0-2.7-1.5-4-3.7-4
			c-2.3,0-3.8,1.4-3.8,4v9.3h-2.2v-15.2h2.2v1.7c1.1-1.2,2.6-1.8,4.3-1.8c2.1,0,3.7,0.9,4.7,2.5c1.2-1.7,2.9-2.5,5-2.5
			c1.6,0,3,0.5,3.9,1.4c1.1,1,1.6,2.5,1.6,4.2v9.7H556.2z"/>
		<path class="st1" d="M564,257.8v-2.9h2.9v2.9H564z"/>
	</g>
</g>
<path class="st0" d="M227.5,0v151.6h49.3v-30.3h109.9V0H227.5z M276.8,75.8V45.5h60.6v30.3H276.8z M30.3,30.3H0V0h30.3V30.3z
	 M30.3,151.6H0v-30.3h30.3V151.6z M166.8,30.3h-30.3V0h30.3V30.3z M166.8,151.6h-30.3v-30.3h30.3V151.6z M98.6,91H68.2V60.7h30.3V91
	z"/>
</svg>
