<?xml version="1.0" encoding="utf-8"?>
<!-- Generator: Adobe Illustrator 23.0.2, SVG Export Plug-In . SVG Version: 6.00 Build 0)  -->
<svg version="1.1" id="Ikona" xmlns="http://www.w3.org/2000/svg" xmlns:xlink="http://www.w3.org/1999/xlink" x="0px" y="0px"
	 viewBox="0 0 283.5 283.5" style="enable-background:new 0 0 283.5 283.5;" xml:space="preserve">
<style type="text/css">
	.st0{fill:#FFFFFF;}
	.st1{fill:#DA0812;}
</style>
<path id="Pozadí_1_" class="st0" d="M228.6,0H54.8C24.7,0,0,24.7,0,54.8v173.8c0,30.2,24.7,54.8,54.8,54.8h173.8
	c30.2,0,54.8-24.7,54.8-54.8V54.8C283.5,24.7,258.8,0,228.6,0z"/>
<g>
	<g>
		<path class="st1" d="M235.1,122l-15.9-12.9L67.5,108l-16.4,14c-2.6,2.6-4.8,5.8-4.8,9.2V217c0,5.2,4.2,9.4,9.4,9.4l0,0l40.6-65.6
			l-40.3-33.3c-0.6-0.7-0.9-1.7-0.6-2.6c0.3-0.9,1-1.6,1.9-1.8l39,30.4v25.2l115.7-4v-40l16-11.6c0.9,0.2,1.6,0.9,1.9,1.8
			c0.3,0.9,0.1,1.9-0.6,2.6h0l-17.3,14.3l-21.8,18l39.4,66.6l0,0c5.2,0,9.4-4.2,9.4-9.4v-85.8C239.1,127.8,238.7,124.9,235.1,122z"
			/>
	</g>
</g>
<path class="st1" d="M190.2,168.2V58.3c0-7.9-6.4-14.3-14.3-14.3H81.7c-7.9,0-14.3,6.4-14.3,14.3v109.9H190.2z"/>
<g>
	<g>
		<path class="st1" d="M219.2,82.2c0-8.4-6.9-15.3-15.3-15.3h-13.6h-72h-13.6c-8.4,0-15.3,6.9-15.3,15.3v92.6h7.1V82.2
			c0-4.5,3.7-8.2,8.2-8.2h6.3h7.3h72h13.6c4.5,0,8.2,3.7,8.2,8.2v92.6h7.1V82.2z"/>
	</g>
	<g>
		<path class="st0" d="M96.4,159v-33.3v-4V82.2c0-4.5,3.7-8.2,8.2-8.2h85.6h13.6c4.5,0,8.2,3.7,8.2,8.2v39.5v36.1"/>
	</g>
	<g>
		<rect x="111.6" y="92" class="st1" width="31.2" height="7.2"/>
		<polygon class="st1" points="111.6,106.3 111.6,113.5 190.3,113.5 197.5,113.5 197.5,106.3 190.3,106.3 		"/>
		<polygon class="st1" points="111.6,119.8 111.6,121.7 111.6,127 190.3,127 197.5,127 197.5,121.7 197.5,119.8 190.3,119.8 		"/>
	</g>
</g>
<g>
	<path class="st0" d="M96.4,153.6h89.8l41.8-30.4c0.9,0.2,1.6,0.9,1.9,1.8c0.3,0.9,0.1,1.9-0.6,2.6h0l-17.3,14.3l-21.8,18l39.4,66.6
		L185,164.3l-83.9,0.4l-45.3,61.7l40.6-65.6l-40.3-33.3c-0.6-0.7-0.9-1.7-0.6-2.6c0.3-0.9,1-1.6,1.9-1.8L96.4,153.6z"/>
</g>
<polygon class="st1" points="101.1,164.8 55.8,226.5 229.7,226.5 185,164.3 "/>
<polygon class="st1" points="190.3,159.8 228,128.6 224.5,217.6 "/>
</svg>
