<?xml version="1.0" encoding="utf-8"?>
<!-- Generator: Adobe Illustrator 23.0.2, SVG Export Plug-In . SVG Version: 6.00 Build 0)  -->
<svg version="1.1" id="Ikona" xmlns="http://www.w3.org/2000/svg" xmlns:xlink="http://www.w3.org/1999/xlink" x="0px" y="0px"
	 viewBox="0 0 283.5 283.5" style="enable-background:new 0 0 283.5 283.5;" xml:space="preserve">
<style type="text/css">
	.st0{fill:#FFFFFF;}
	.st1{fill:#D90E17;}
</style>
<path id="Pozadí_1_" class="st0" d="M228.6,0H54.8C24.7,0,0,24.7,0,54.8v173.8c0,30.2,24.7,54.8,54.8,54.8h173.8
	c30.2,0,54.8-24.7,54.8-54.8V54.8C283.5,24.7,258.8,0,228.6,0z"/>
<g>
	<path class="st1" d="M218.2,146L146,218.2v18.1c22.8-1,45.3-10.2,62.7-27.6c17.4-17.4,26.6-39.9,27.6-62.7L218.2,146z"/>
	<path class="st1" d="M47.1,146c1,22.8,10.2,45.3,27.6,62.7c17.4,17.4,39.9,26.6,62.7,27.6v-18.1L65.3,146L47.1,146z"/>
	<path class="st1" d="M137.5,47.1c-22.8,1-45.3,10.2-62.7,27.6s-26.6,39.9-27.6,62.7l18.1,0l72.2-72.2L137.5,47.1z"/>
	<path class="st1" d="M208.7,74.8c-17.4-17.4-39.9-26.6-62.7-27.6l0,18.1l72.2,72.2l18.1,0C235.3,114.7,226.1,92.2,208.7,74.8z"/>
	<rect x="94" y="94" transform="matrix(0.7071 -0.7071 0.7071 0.7071 -58.7074 141.7323)" class="st1" width="95.5" height="95.5"/>
</g>
</svg>
