<?xml version="1.0" encoding="utf-8"?>
<!-- Generator: Adobe Illustrator 23.0.2, SVG Export Plug-In . SVG Version: 6.00 Build 0)  -->
<svg version="1.1" id="Ikona" xmlns="http://www.w3.org/2000/svg" xmlns:xlink="http://www.w3.org/1999/xlink" x="0px" y="0px"
	 viewBox="0 0 283.5 283.5" style="enable-background:new 0 0 283.5 283.5;" xml:space="preserve">
<style type="text/css">
	.st0{fill:#FFFFFF;}
	.st1{fill:#D90E17;}
</style>
<path id="Pozadí_1_" class="st0" d="M228.6,0H54.8C24.7,0,0,24.7,0,54.8v173.8c0,30.2,24.7,54.8,54.8,54.8h173.8
	c30.2,0,54.8-24.7,54.8-54.8V54.8C283.5,24.7,258.8,0,228.6,0z"/>
<g>
	<g>
		<path class="st1" d="M142.3,217.7v-36h17.5c2.8,0,5-2.3,5-5s-2.3-5-5-5h-17.5v-24.4h17.5c2.8,0,5-2.3,5-5c0-2.8-2.3-5-5-5h-17.5
			v-24.4h17.5c2.8,0,5-2.3,5-5s-2.3-5-5-5h-17.5V65.8H218c13.4,0,24.2,10.9,24.2,24.2v103.4c0,13.4-10.9,24.2-24.2,24.2h-75.7V217.7
			z"/>
		<path class="st0" d="M218.1,67.2c12.6,0,22.9,10.2,22.9,22.9v103.4c0,12.6-10.2,22.9-22.9,22.9H162h-18.3V183h16.2
			c3.5,0,6.4-2.9,6.4-6.4s-2.9-6.4-6.4-6.4h-16.2v-21.7h16.2c3.5,0,6.4-2.9,6.4-6.4s-2.9-6.4-6.4-6.4h-16.2V114h16.2
			c3.5,0,6.4-2.9,6.4-6.4s-2.9-6.4-6.4-6.4h-16.2v-34H162H218.1 M218.1,64.4H162h-18.3H141v2.7v34.2v2.7h2.7h16.2
			c2,0,3.6,1.6,3.6,3.6s-1.6,3.6-3.6,3.6h-16.2H141v2.7v21.7v2.7h2.7h16.2c2,0,3.6,1.6,3.6,3.6s-1.6,3.6-3.6,3.6h-16.2H141v2.7v21.7
			v2.7h2.7h16.2c2,0,3.6,1.6,3.6,3.6s-1.6,3.6-3.6,3.6h-16.2H141v2.7v33.3v2.7h2.7H162h56.1c14.1,0,25.6-11.5,25.6-25.6V90
			C243.7,75.9,232.2,64.4,218.1,64.4L218.1,64.4z"/>
	</g>
</g>
<g>
	<g>
		<path class="st1" d="M65.4,217.7c-13.4,0-24.2-10.9-24.2-24.2V90c0-13.4,10.9-24.2,24.2-24.2h75.7v36.9h-17.5c-2.8,0-5,2.3-5,5
			s2.3,5,5,5h17.5v24.4h-17.5c-2.8,0-5,2.3-5,5c0,2.8,2.3,5,5,5h17.5v24.4h-17.5c-2.8,0-5,2.3-5,5s2.3,5,5,5h17.5v36H65.4V217.7z"/>
		<path class="st0" d="M139.7,67.2v34.2h-16.2c-3.5,0-6.4,2.9-6.4,6.4s2.9,6.4,6.4,6.4h16.2v21.7h-16.2c-3.5,0-6.4,2.9-6.4,6.4
			s2.9,6.4,6.4,6.4h16.2v21.7h-16.2c-3.5,0-6.4,2.9-6.4,6.4s2.9,6.4,6.4,6.4h16.2v33.3h-18.3h-56c-12.6,0-22.9-10.2-22.9-22.9V90
			c0-12.6,10.2-22.9,22.9-22.9h56.1L139.7,67.2 M142.5,64.4h-2.7h-18.3H65.4c-14.1,0-25.6,11.5-25.6,25.6v103.4
			c0,14.1,11.5,25.6,25.6,25.6h56.1h18.3h2.7v-2.7V183v-2.7h-2.7h-16.2c-2,0-3.6-1.6-3.6-3.6s1.6-3.6,3.6-3.6h16.2h2.7v-2.7v-21.7
			V146h-2.7h-16.2c-2,0-3.6-1.6-3.6-3.6s1.6-3.6,3.6-3.6h16.2h2.7v-2.7v-21.7v-2.7h-2.7h-16.2c-2,0-3.6-1.6-3.6-3.6s1.6-3.6,3.6-3.6
			h16.2h2.7v-2.7V67.2V64.4L142.5,64.4z"/>
	</g>
</g>
<path class="st1" d="M156.1,105.4h-28.5c-1.3,0-2.4,1.1-2.4,2.4l0,0c0,1.3,1.1,2.4,2.4,2.4h28.5c1.3,0,2.4-1.1,2.4-2.4l0,0
	C158.5,106.5,157.4,105.4,156.1,105.4z"/>
<path class="st1" d="M156.1,139.8h-28.5c-1.3,0-2.4,1.1-2.4,2.4l0,0c0,1.3,1.1,2.4,2.4,2.4h28.5c1.3,0,2.4-1.1,2.4-2.4l0,0
	C158.5,140.9,157.4,139.8,156.1,139.8z"/>
<path class="st1" d="M156.1,174.3h-28.5c-1.3,0-2.4,1.1-2.4,2.4l0,0c0,1.3,1.1,2.4,2.4,2.4h28.5c1.3,0,2.4-1.1,2.4-2.4l0,0
	C158.5,175.3,157.4,174.3,156.1,174.3z"/>
<path class="st0" d="M89.9,88.9H76.8h-10v9.4v6.7v9.4v6.5h10.1v-6.5h13h10V105v-6.7v-9.4H89.9z M90.2,105.3H76.9V98h13.3V105.3z"/>
</svg>
