<?xml version="1.0" encoding="utf-8"?>
<!-- Generator: Adobe Illustrator 23.0.2, SVG Export Plug-In . SVG Version: 6.00 Build 0)  -->
<svg version="1.1" id="Ikona" xmlns="http://www.w3.org/2000/svg" xmlns:xlink="http://www.w3.org/1999/xlink" x="0px" y="0px"
	 viewBox="0 0 283.5 283.5" style="enable-background:new 0 0 283.5 283.5;" xml:space="preserve">
<style type="text/css">
	.st0{fill:#FFFFFF;}
	.st1{fill:#D90E17;}
	.st2{fill:none;stroke:#FFFFFF;stroke-width:6.9686;stroke-miterlimit:10;}
</style>
<path id="Pozadí_1_" class="st0" d="M228.6,0H54.8C24.7,0,0,24.7,0,54.8v173.8c0,30.2,24.7,54.8,54.8,54.8h173.8
	c30.2,0,54.8-24.7,54.8-54.8V54.8C283.5,24.7,258.8,0,228.6,0z"/>
<g>
	<circle class="st1" cx="141.7" cy="141.7" r="96"/>
	<circle class="st0" cx="84.2" cy="141.7" r="21.6"/>
	<circle class="st0" cx="199.2" cy="141.7" r="21.6"/>
	<path class="st2" d="M85,137.9c4-13.1,9.9-26.7,19.8-36.4c10.3-10.1,27.7-14.4,39.2-3.4c14.7,14.1,16.5,41.8,13.3,60.7
		c-3,17.5-14.6,41.3-36,38.3c-13.4-1.9-15.6-14.9-12.7-26.2c4.2-16.3,16.1-29.9,31.3-36.9c15.8-7.3,35.4-5,50.3,3.7
		c0.6,0.3,1.2,0.7,1.8,1.1"/>
</g>
</svg>
