<?xml version="1.0" encoding="utf-8"?>
<!-- Generator: Adobe Illustrator 23.0.2, SVG Export Plug-In . SVG Version: 6.00 Build 0)  -->
<svg version="1.1" id="Ikona" xmlns="http://www.w3.org/2000/svg" xmlns:xlink="http://www.w3.org/1999/xlink" x="0px" y="0px"
	 viewBox="0 0 283.5 283.5" style="enable-background:new 0 0 283.5 283.5;" xml:space="preserve">
<style type="text/css">
	.st0{fill:#FFFFFF;}
	.st1{fill:#CF1417;}
	.st2{fill:none;stroke:#CF1417;stroke-width:4.8703;stroke-miterlimit:10;}
</style>
<path id="Pozadí_1_" class="st0" d="M228.6,0H54.8C24.7,0,0,24.7,0,54.8v173.8c0,30.2,24.7,54.8,54.8,54.8h173.8
	c30.2,0,54.8-24.7,54.8-54.8V54.8C283.5,24.7,258.8,0,228.6,0z"/>
<circle class="st1" cx="75.7" cy="75.7" r="20.4"/>
<circle class="st1" cx="207.8" cy="75.7" r="20.4"/>
<circle class="st1" cx="207.8" cy="207.8" r="20.4"/>
<circle class="st1" cx="75.7" cy="207.8" r="20.4"/>
<circle class="st1" cx="141.7" cy="141.7" r="66.1"/>
<line class="st2" x1="75.7" y1="207.8" x2="207.8" y2="75.7"/>
<line class="st2" x1="75.7" y1="75.7" x2="207.8" y2="207.8"/>
<path id="Path_34" class="st0" d="M173.8,164.2h-60.7c-9.2,0-16.6-7.4-16.6-16.6c0,0,0,0,0,0c0-8.9,7-16.2,15.9-16.6
	c-0.1-0.7-0.1-1.4-0.1-2.1c0-11,8.9-20,20-20c9.5,0,17.8,6.8,19.6,16.1c2.1-1.6,4.6-2.4,7.2-2.4c6.7,0,12.1,5.4,12.1,12.1
	c0,0.7-0.1,1.4-0.2,2.1c0.9-0.2,1.9-0.3,2.9-0.3c7.7,0,13.9,6.2,13.9,13.9c0,0,0,0,0,0C187.7,158,181.5,164.2,173.8,164.2
	C173.8,164.2,173.8,164.2,173.8,164.2L173.8,164.2z"/>
</svg>
