<?xml version="1.0" encoding="utf-8"?>
<!-- Generator: Adobe Illustrator 23.0.2, SVG Export Plug-In . SVG Version: 6.00 Build 0)  -->
<svg version="1.1" id="Ikona" xmlns="http://www.w3.org/2000/svg" xmlns:xlink="http://www.w3.org/1999/xlink" x="0px" y="0px"
	 viewBox="0 0 283.5 283.5" style="enable-background:new 0 0 283.5 283.5;" xml:space="preserve">
<style type="text/css">
	.st0{fill:#FFFFFF;}
	.st1{fill:#D90E17;}
</style>
<path id="Pozadí_1_" class="st0" d="M228.6,0H54.8C24.7,0,0,24.7,0,54.8v173.8c0,30.2,24.7,54.8,54.8,54.8h173.8
	c30.2,0,54.8-24.7,54.8-54.8V54.8C283.5,24.7,258.8,0,228.6,0z"/>
<g>
	<path class="st1" d="M234.7,141.7c0-4.1-0.3-8.2-0.8-12.3c0,0,0,0,0,0c-6.1-46-45.7-80.7-92.2-80.7c-51.3,0-93,41.7-93,93
		s41.7,93,93,93c22.7,0,44.5-8.3,61.5-23.3c4.5-4,5-10.9,1-15.5c-4-4.5-10.9-5-15.5-1c-13,11.5-29.7,17.8-47,17.8
		c-39.2,0-71.1-31.9-71.1-71.1s31.9-71.1,71.1-71.1c35.5,0,65.8,26.5,70.5,61.7c0,0,0,0,0,0c0.4,3.1,0.6,6.2,0.6,9.4
		c0,0,0,0.1,0,0.1c0,0,0,0.1,0,0.1c0,7.9-6.5,14.4-14.4,14.4c-4.5,0-8.5-2.1-11.2-5.3c0.6-3,0.9-6.1,0.9-9.3
		c0-25.6-20.8-46.4-46.4-46.4s-46.4,20.8-46.4,46.4c0,25.6,20.8,46.4,46.4,46.4c14.3,0,27.1-6.5,35.6-16.7c5.9,4.2,13.2,6.7,21,6.7
		c20,0,36.3-16.3,36.3-36.3c0,0,0-0.1,0-0.1C234.7,141.8,234.7,141.8,234.7,141.7z M141.7,166.3c-13.6,0-24.6-11-24.6-24.6
		c0-13.6,11-24.6,24.6-24.6c13.6,0,24.6,11,24.6,24.6C166.3,155.3,155.3,166.3,141.7,166.3z"/>
</g>
</svg>
