<?xml version="1.0" encoding="utf-8"?>
<!-- Generator: Adobe Illustrator 23.0.2, SVG Export Plug-In . SVG Version: 6.00 Build 0)  -->
<svg version="1.1" id="Ikona" xmlns="http://www.w3.org/2000/svg" xmlns:xlink="http://www.w3.org/1999/xlink" x="0px" y="0px"
	 viewBox="0 0 283.5 283.5" style="enable-background:new 0 0 283.5 283.5;" xml:space="preserve">
<style type="text/css">
	.st0{fill:#FFFFFF;}
	.st1{fill:#D90E17;}
</style>
<path id="Pozadí_1_" class="st0" d="M228.6,0H54.8C24.7,0,0,24.7,0,54.8v173.8c0,30.2,24.7,54.8,54.8,54.8h173.8
	c30.2,0,54.8-24.7,54.8-54.8V54.8C283.5,24.7,258.8,0,228.6,0z"/>
<g>
	<g>
		<g>
			<path class="st1" d="M65.4,217.7c-13.4,0-24.2-10.9-24.2-24.2V90c0-13.4,10.9-24.2,24.2-24.2h75.7v36.9h-17.5c-2.8,0-5,2.3-5,5
				s2.3,5,5,5h17.5v24.4h-17.5c-2.8,0-5,2.3-5,5c0,2.8,2.3,5,5,5h17.5v24.4h-17.5c-2.8,0-5,2.3-5,5s2.3,5,5,5h17.5v36H65.4z"/>
			<path class="st0" d="M139.7,67.2v34.2h-16.2c-3.5,0-6.4,2.9-6.4,6.4c0,3.5,2.9,6.4,6.4,6.4h16.2v21.7h-16.2
				c-3.5,0-6.4,2.9-6.4,6.4c0,3.5,2.9,6.4,6.4,6.4h16.2v21.7h-16.2c-3.5,0-6.4,2.9-6.4,6.4s2.9,6.4,6.4,6.4h16.2v33.3h-18.3H65.4
				c-12.6,0-22.9-10.2-22.9-22.9V90c0-12.6,10.2-22.9,22.9-22.9h56.1H139.7 M142.5,64.4h-2.7h-18.3H65.4
				c-14.1,0-25.6,11.5-25.6,25.6v103.4c0,14.1,11.5,25.6,25.6,25.6h56.1h18.3h2.7v-2.7V183v-2.7h-2.7h-16.2c-2,0-3.6-1.6-3.6-3.6
				s1.6-3.6,3.6-3.6h16.2h2.7v-2.7v-21.7v-2.7h-2.7h-16.2c-2,0-3.6-1.6-3.6-3.6c0-2,1.6-3.6,3.6-3.6h16.2h2.7v-2.7v-21.7v-2.7h-2.7
				h-16.2c-2,0-3.6-1.6-3.6-3.6c0-2,1.6-3.6,3.6-3.6h16.2h2.7v-2.7V67.2V64.4L142.5,64.4z"/>
		</g>
	</g>
</g>
</svg>
