<?xml version="1.0" encoding="utf-8"?>
<!-- Generator: Adobe Illustrator 23.0.2, SVG Export Plug-In . SVG Version: 6.00 Build 0)  -->
<svg version="1.1" id="Ikona" xmlns="http://www.w3.org/2000/svg" xmlns:xlink="http://www.w3.org/1999/xlink" x="0px" y="0px"
	 viewBox="0 0 283.5 283.5" style="enable-background:new 0 0 283.5 283.5;" xml:space="preserve">
<style type="text/css">
	.st0{fill:#FFFFFF;}
	.st1{fill:#DA0E16;}
	.st2{fill:#D90E17;}
</style>
<path id="Pozadí_1_" class="st0" d="M228.6,0H54.8C24.7,0,0,24.7,0,54.8v173.8c0,30.2,24.7,54.8,54.8,54.8h173.8
	c30.2,0,54.8-24.7,54.8-54.8V54.8C283.5,24.7,258.8,0,228.6,0z"/>
<g>
	<g>
		<path class="st1" d="M60.8,125l74.3-61.3c4.3-3.5,10.4-3.5,14.7,0l74.3,61.3H60.8z"/>
	</g>
	<g>
		<path class="st1" d="M224.1,125l-74.3,61.3c-4.3,3.5-10.4,3.5-14.7,0L60.8,125H224.1z"/>
	</g>
	<g>
		<g>
			<path class="st0" d="M215.9,195.2v-81c0-6.4-4.7-11.6-10.5-11.6H79c-5.8,0-10.5,5.2-10.5,11.6v81"/>
			<path class="st1" d="M217.9,195.2H214v-81c0-5.3-3.8-9.6-8.5-9.6H79c-4.7,0-8.5,4.3-8.5,9.6v81h-3.9v-81
				c0-7.4,5.6-13.5,12.4-13.5h126.5c6.8,0,12.4,6.1,12.4,13.5V195.2z"/>
		</g>
		<g>
			<rect x="144.5" y="115.6" class="st2" width="19.3" height="5"/>
			<polygon class="st2" points="144.5,125.4 144.5,130.4 193.1,130.4 197.6,130.4 197.6,125.4 193.1,125.4 			"/>
			<polygon class="st2" points="144.5,134.6 144.5,136 144.5,139.6 193.1,139.6 197.6,139.6 197.6,136 197.6,134.6 193.1,134.6 			
				"/>
		</g>
	</g>
	<g>
		<path class="st2" d="M220.8,208.5c0.8,0.8,0.7,2.1-0.1,2.9c-0.4,0.4-0.9,0.6-1.4,0.6c-0.5,0-1.1-0.2-1.5-0.6l-39.9-42.6
			l-25.7,21.2c-5.7,4.7-14,4.7-19.7,0L107,168.8l-39.8,42.5c-0.4,0.4-0.9,0.6-1.5,0.6c-0.5,0-1-0.2-1.4-0.6
			c-0.8-0.8-0.9-2.1-0.1-2.9l39.7-42.4l-34.3-28.3l-12.3-10.2c-2.1,2.1-3.4,5-3.4,8.3v74.7c0,6.5,5.2,11.7,11.7,11.7h153.8
			c6.5,0,11.7-5.2,11.7-11.7V136c0-3.2-1.3-6.2-3.4-8.3l-46.5,38.4L220.8,208.5z"/>
	</g>
	<g>
		<path class="st0" d="M103.8,166.2l-39.7,42.4c-0.8,0.8-0.7,2.1,0.1,2.9c0.4,0.4,0.9,0.6,1.4,0.6c0.5,0,1.1-0.2,1.5-0.6l39.8-42.5
			l25.6,21.1c5.7,4.7,14,4.7,19.7,0l25.7-21.2l39.9,42.6c0.4,0.4,0.9,0.6,1.5,0.6c0.5,0,1-0.2,1.4-0.6c0.8-0.8,0.9-2.1,0.1-2.9
			l-39.7-42.4l46.5-38.4c0,0,1.6-5,0-5.5l-77.9,64.2c-4.3,3.5-10.4,3.5-14.7,0L56,121.1c-0.9-0.8-2.3-0.6-3,0.3
			c-0.8,0.9-0.6,2.3,0.3,3L103.8,166.2z"/>
	</g>
</g>
</svg>
