<?xml version="1.0" encoding="utf-8"?>
<!-- Generator: Adobe Illustrator 23.0.2, SVG Export Plug-In . SVG Version: 6.00 Build 0)  -->
<svg version="1.1" id="Ikona" xmlns="http://www.w3.org/2000/svg" xmlns:xlink="http://www.w3.org/1999/xlink" x="0px" y="0px"
	 viewBox="0 0 283.5 283.5" style="enable-background:new 0 0 283.5 283.5;" xml:space="preserve">
<style type="text/css">
	.st0{fill:#FFFFFF;}
	.st1{fill:#1797D5;}
	.st2{fill:#E40A7D;}
	.st3{fill:#2C2E76;}
	.st4{fill:#FCE405;}
	.st5{fill:#018D3D;}
	.st6{fill:#DB1319;}
	.st7{fill:#453A36;}
</style>
<path id="Pozadí_1_" class="st0" d="M228.6,0H54.8C24.7,0,0,24.7,0,54.8v173.8c0,30.2,24.7,54.8,54.8,54.8h173.8
	c30.2,0,54.8-24.7,54.8-54.8V54.8C283.5,24.7,258.8,0,228.6,0z"/>
<g>
	<path class="st1" d="M130.5,161.4c-21.4-4.1-38.9-19.3-46.1-39.4C55.8,127.1,34,152.2,34,182.3c0,33.9,27.4,61.3,61.3,61.3
		c18.6,0,35.2-8.3,46.4-21.3c-9.3-10.7-14.9-24.7-14.9-40C126.8,174.9,128.1,167.9,130.5,161.4z"/>
	<path class="st2" d="M141.7,142.3c11.2-13,27.9-21.3,46.4-21.3c4,0,7.8,0.4,11.6,1.1c2.4-6.5,3.7-13.6,3.7-20.9
		c0-33.9-27.4-61.3-61.3-61.3s-61.3,27.4-61.3,61.3c0,7.3,1.3,14.3,3.6,20.8c3.5-0.6,7.2-1,10.9-1
		C113.9,121,130.5,129.2,141.7,142.3z"/>
	<path class="st3" d="M130.5,161.4c2.6-7.1,6.4-13.5,11.2-19.1c-11.2-13-27.9-21.3-46.4-21.3c-3.7,0-7.4,0.4-10.9,1
		C91.6,142.1,109.1,157.3,130.5,161.4z"/>
	<path class="st4" d="M199.7,122.1c-7.3,20.2-25.1,35.5-46.7,39.4c2.3,6.5,3.6,13.5,3.6,20.8c0,15.3-5.6,29.3-14.9,40
		c11.2,13,27.9,21.3,46.4,21.3c33.9,0,61.3-27.4,61.3-61.3C249.4,152.4,228,127.5,199.7,122.1z"/>
	<path class="st5" d="M153,161.5c-3.5,0.6-7.2,1-10.9,1c-4,0-7.8-0.4-11.6-1.1c-2.4,6.5-3.7,13.6-3.7,20.9c0,15.3,5.6,29.3,14.9,40
		c9.3-10.7,14.9-24.7,14.9-40C156.6,175,155.3,168,153,161.5z"/>
	<path class="st6" d="M141.7,142.3c4.8,5.6,8.7,12.1,11.3,19.2c21.7-3.9,39.4-19.2,46.7-39.4c-3.7-0.7-7.6-1.1-11.6-1.1
		C169.6,121,153,129.2,141.7,142.3z"/>
	<path class="st7" d="M130.5,161.4c3.7,0.7,7.6,1.1,11.6,1.1c3.7,0,7.4-0.4,10.9-1c-2.6-7.1-6.4-13.6-11.3-19.2
		C136.9,147.8,133.1,154.3,130.5,161.4z"/>
</g>
</svg>
